<svg xmlns="http://www.w3.org/2000/svg" xmlns:xlink="http://www.w3.org/1999/xlink" width="1920" zoomAndPan="magnify" viewBox="0 0 1440 809.999993" height="1080" preserveAspectRatio="xMidYMid meet" version="1.0"><defs><clipPath id="e374491b14"><path d="M 496.800781 96.574219 L 601.800781 96.574219 L 601.800781 340.324219 L 496.800781 340.324219 Z M 496.800781 96.574219 " clip-rule="nonzero"/></clipPath><clipPath id="3e3a7944ed"><path d="M 401 256 L 445.992188 256 L 445.992188 301 L 401 301 Z M 401 256 " clip-rule="nonzero"/></clipPath><clipPath id="dc6ebaacc5"><path d="M 401 337 L 445.992188 337 L 445.992188 382 L 401 382 Z M 401 337 " clip-rule="nonzero"/></clipPath></defs><path stroke-linecap="butt" transform="matrix(0.67692, 0, 0, 0.67692, 148.534144, 218.373172)" fill="none" stroke-linejoin="miter" d="M 0.00149604 5.502103 L 1688.427753 5.502103 " stroke="#000000" stroke-width="11" stroke-opacity="1" stroke-miterlimit="4"/><path stroke-linecap="butt" transform="matrix(0.67692, 0, 0, 0.67692, 148.534144, 319.290472)" fill="none" stroke-linejoin="miter" d="M 0.00149604 5.497321 L 1688.427753 5.497321 " stroke="#000000" stroke-width="11" stroke-opacity="1" stroke-miterlimit="4"/><path stroke-linecap="butt" transform="matrix(0.67692, 0, 0, 0.67692, 148.534144, 420.151631)" fill="none" stroke-linejoin="miter" d="M 0.00149604 5.500456 L 1688.427753 5.500456 " stroke="#000000" stroke-width="11" stroke-opacity="1" stroke-miterlimit="4"/><path stroke-linecap="butt" transform="matrix(0.67692, 0, 0, 0.67692, 148.534144, 521.012682)" fill="none" stroke-linejoin="miter" d="M 0.00149604 5.49798 L 1688.427753 5.49798 " stroke="#000000" stroke-width="11" stroke-opacity="1" stroke-miterlimit="4"/><path stroke-linecap="butt" transform="matrix(0.67692, 0, 0, 0.67692, 148.534144, 621.873733)" fill="none" stroke-linejoin="miter" d="M 0.00149604 5.501275 L 1688.427753 5.501275 " stroke="#000000" stroke-width="11" stroke-opacity="1" stroke-miterlimit="4"/><g clip-path="url(#e374491b14)"><path fill="#000000" d="M 575.652344 186.1875 L 601.800781 180.457031 L 601.800781 150.714844 L 575.652344 156.441406 L 575.652344 96.667969 L 568.636719 96.667969 L 568.636719 157.980469 L 529.140625 166.636719 L 529.140625 120.601562 L 522.125 120.601562 L 522.125 168.171875 L 496.796875 173.722656 L 496.796875 203.464844 L 522.125 197.917969 L 522.125 257.839844 L 496.796875 263.390625 L 496.796875 293.132812 L 522.125 287.585938 L 522.125 340.160156 L 529.140625 340.160156 L 529.140625 286.046875 L 568.636719 277.394531 L 568.636719 316.226562 L 575.652344 316.226562 L 575.652344 275.859375 L 601.800781 270.128906 L 601.800781 240.386719 L 575.652344 246.113281 Z M 568.636719 247.648438 L 529.140625 256.300781 L 529.140625 196.378906 L 568.636719 187.722656 L 568.636719 247.652344 Z M 568.636719 247.648438 " fill-opacity="1" fill-rule="nonzero"/></g><path fill="#000000" d="M 174.75 538.773438 C 203.691406 518.785156 375.589844 393.609375 314.144531 280.210938 C 313.078125 278.238281 311.902344 276.332031 310.617188 274.5 C 309.328125 272.664062 307.9375 270.914062 306.445312 269.242188 C 304.949219 267.570312 303.363281 265.992188 301.683594 264.511719 C 300.007812 263.027344 298.246094 261.644531 296.40625 260.367188 C 294.566406 259.089844 292.65625 257.925781 290.679688 256.871094 C 288.699219 255.820312 286.667969 254.886719 284.582031 254.074219 C 282.496094 253.257812 280.367188 252.570312 278.199219 252.007812 C 276.03125 251.445312 273.835938 251.007812 271.617188 250.703125 C 250.304688 247.789062 221.910156 251.140625 206.394531 283.105469 C 202.964844 290.171875 208.378906 298.308594 216.222656 297.964844 C 219.128906 297.800781 222.003906 297.386719 224.839844 296.722656 C 233.046875 294.894531 241.648438 295.660156 249.273438 299.203125 C 259.296875 303.859375 269.210938 312.914062 263.667969 330.140625 C 261.636719 336.324219 258.335938 341.730469 253.769531 346.367188 C 245.292969 355.085938 228.1875 367.457031 206.632812 355.636719 C 188.160156 345.507812 177.925781 324.796875 180.945312 303.929688 C 183.472656 286.453125 194.566406 265.332031 228.4375 249.867188 C 228.4375 249.867188 291.296875 218.371094 343.242188 258.207031 C 348.296875 262.074219 352.820312 266.484375 356.8125 271.441406 C 360.804688 276.398438 364.152344 281.757812 366.859375 287.519531 C 375.816406 306.667969 385.042969 340.796875 368.796875 384.585938 C 358.46875 412.429688 340.445312 436.757812 317.113281 455.101562 C 286.78125 478.949219 228.527344 522.335938 178.570312 545.460938 C 178.230469 545.621094 177.871094 545.726562 177.496094 545.78125 C 177.121094 545.835938 176.746094 545.832031 176.375 545.777344 C 176 545.722656 175.640625 545.613281 175.300781 545.453125 C 174.957031 545.289062 174.644531 545.085938 174.363281 544.832031 C 174.148438 544.636719 173.953125 544.417969 173.785156 544.179688 C 173.617188 543.941406 173.480469 543.6875 173.371094 543.417969 C 173.257812 543.144531 173.179688 542.867188 173.132812 542.578125 C 173.085938 542.289062 173.070312 542 173.089844 541.710938 C 173.109375 541.417969 173.160156 541.132812 173.242188 540.851562 C 173.324219 540.570312 173.4375 540.304688 173.582031 540.050781 C 173.726562 539.796875 173.898438 539.5625 174.09375 539.34375 C 174.289062 539.128906 174.507812 538.9375 174.75 538.773438 Z M 174.75 538.773438 " fill-opacity="1" fill-rule="nonzero"/><g clip-path="url(#3e3a7944ed)"><path fill="#000000" d="M 445.957031 278.410156 C 445.957031 279.132812 445.921875 279.855469 445.851562 280.574219 C 445.777344 281.296875 445.671875 282.011719 445.53125 282.71875 C 445.390625 283.429688 445.214844 284.128906 445.003906 284.824219 C 444.796875 285.515625 444.554688 286.195312 444.277344 286.863281 C 444 287.53125 443.691406 288.183594 443.351562 288.824219 C 443.007812 289.460938 442.636719 290.082031 442.238281 290.683594 C 441.835938 291.285156 441.40625 291.863281 440.945312 292.421875 C 440.488281 292.980469 440.003906 293.519531 439.492188 294.027344 C 438.980469 294.539062 438.445312 295.027344 437.886719 295.484375 C 437.328125 295.945312 436.75 296.375 436.148438 296.777344 C 435.546875 297.179688 434.929688 297.550781 434.292969 297.890625 C 433.652344 298.230469 433 298.539062 432.332031 298.816406 C 431.664062 299.09375 430.984375 299.335938 430.292969 299.546875 C 429.601562 299.757812 428.902344 299.933594 428.195312 300.074219 C 427.484375 300.214844 426.769531 300.320312 426.050781 300.390625 C 425.332031 300.464844 424.613281 300.5 423.890625 300.5 C 423.167969 300.5 422.445312 300.464844 421.726562 300.390625 C 421.007812 300.320312 420.292969 300.214844 419.582031 300.074219 C 418.875 299.933594 418.175781 299.757812 417.484375 299.546875 C 416.792969 299.335938 416.113281 299.09375 415.445312 298.816406 C 414.777344 298.539062 414.125 298.230469 413.488281 297.890625 C 412.847656 297.550781 412.230469 297.179688 411.628906 296.777344 C 411.027344 296.375 410.449219 295.945312 409.890625 295.484375 C 409.332031 295.027344 408.796875 294.539062 408.285156 294.027344 C 407.773438 293.519531 407.289062 292.980469 406.832031 292.421875 C 406.371094 291.863281 405.941406 291.285156 405.542969 290.683594 C 405.140625 290.082031 404.769531 289.460938 404.429688 288.824219 C 404.085938 288.183594 403.777344 287.53125 403.5 286.863281 C 403.226562 286.195312 402.980469 285.515625 402.773438 284.824219 C 402.5625 284.128906 402.386719 283.429688 402.246094 282.71875 C 402.105469 282.011719 402 281.296875 401.929688 280.574219 C 401.859375 279.855469 401.820312 279.132812 401.820312 278.410156 C 401.820312 277.6875 401.859375 276.964844 401.929688 276.246094 C 402 275.527344 402.105469 274.8125 402.246094 274.101562 C 402.386719 273.390625 402.5625 272.691406 402.773438 272 C 402.980469 271.308594 403.226562 270.625 403.5 269.957031 C 403.777344 269.289062 404.085938 268.636719 404.425781 268 C 404.769531 267.359375 405.140625 266.742188 405.542969 266.140625 C 405.941406 265.539062 406.371094 264.957031 406.832031 264.398438 C 407.289062 263.839844 407.773438 263.304688 408.285156 262.792969 C 408.796875 262.28125 409.332031 261.796875 409.890625 261.335938 C 410.449219 260.878906 411.027344 260.449219 411.628906 260.046875 C 412.230469 259.644531 412.847656 259.273438 413.488281 258.929688 C 414.125 258.589844 414.777344 258.28125 415.445312 258.003906 C 416.113281 257.726562 416.792969 257.484375 417.484375 257.273438 C 418.175781 257.0625 418.875 256.890625 419.582031 256.746094 C 420.292969 256.605469 421.007812 256.5 421.726562 256.429688 C 422.445312 256.359375 423.167969 256.324219 423.890625 256.324219 C 424.613281 256.324219 425.332031 256.359375 426.050781 256.429688 C 426.769531 256.5 427.484375 256.605469 428.195312 256.746094 C 428.902344 256.890625 429.601562 257.0625 430.292969 257.273438 C 430.984375 257.484375 431.664062 257.726562 432.332031 258.003906 C 433 258.28125 433.652344 258.589844 434.292969 258.929688 C 434.929688 259.273438 435.546875 259.644531 436.148438 260.046875 C 436.75 260.449219 437.328125 260.878906 437.886719 261.335938 C 438.445312 261.796875 438.980469 262.28125 439.492188 262.792969 C 440.003906 263.304688 440.488281 263.839844 440.945312 264.398438 C 441.40625 264.957031 441.835938 265.539062 442.238281 266.140625 C 442.636719 266.742188 443.007812 267.359375 443.351562 268 C 443.691406 268.636719 444 269.289062 444.277344 269.957031 C 444.554688 270.625 444.796875 271.308594 445.003906 272 C 445.214844 272.691406 445.390625 273.390625 445.53125 274.101562 C 445.671875 274.8125 445.777344 275.527344 445.851562 276.246094 C 445.921875 276.964844 445.957031 277.6875 445.957031 278.410156 Z M 445.957031 278.410156 " fill-opacity="1" fill-rule="nonzero"/></g><g clip-path="url(#dc6ebaacc5)"><path fill="#000000" d="M 445.957031 359.667969 C 445.957031 360.390625 445.921875 361.113281 445.851562 361.832031 C 445.777344 362.550781 445.671875 363.265625 445.53125 363.976562 C 445.390625 364.6875 445.214844 365.386719 445.003906 366.078125 C 444.796875 366.773438 444.554688 367.453125 444.277344 368.121094 C 444 368.789062 443.691406 369.441406 443.351562 370.078125 C 443.007812 370.71875 442.636719 371.335938 442.238281 371.9375 C 441.835938 372.539062 441.40625 373.121094 440.945312 373.679688 C 440.488281 374.238281 440.003906 374.773438 439.492188 375.285156 C 438.980469 375.796875 438.445312 376.28125 437.886719 376.742188 C 437.328125 377.199219 436.75 377.628906 436.148438 378.03125 C 435.546875 378.433594 434.929688 378.804688 434.292969 379.148438 C 433.652344 379.488281 433 379.796875 432.332031 380.074219 C 431.664062 380.351562 430.984375 380.59375 430.292969 380.804688 C 429.601562 381.015625 428.902344 381.191406 428.195312 381.332031 C 427.484375 381.472656 426.769531 381.578125 426.050781 381.648438 C 425.332031 381.71875 424.613281 381.753906 423.890625 381.753906 C 423.167969 381.753906 422.445312 381.71875 421.726562 381.648438 C 421.007812 381.578125 420.292969 381.472656 419.582031 381.332031 C 418.875 381.191406 418.175781 381.015625 417.484375 380.804688 C 416.792969 380.59375 416.113281 380.351562 415.445312 380.074219 C 414.777344 379.796875 414.125 379.488281 413.488281 379.148438 C 412.847656 378.804688 412.230469 378.433594 411.628906 378.03125 C 411.027344 377.628906 410.449219 377.199219 409.890625 376.742188 C 409.332031 376.28125 408.796875 375.796875 408.285156 375.285156 C 407.773438 374.773438 407.289062 374.238281 406.832031 373.679688 C 406.371094 373.121094 405.941406 372.539062 405.542969 371.9375 C 405.140625 371.335938 404.769531 370.71875 404.429688 370.078125 C 404.085938 369.441406 403.777344 368.789062 403.5 368.121094 C 403.226562 367.453125 402.980469 366.773438 402.773438 366.078125 C 402.5625 365.386719 402.386719 364.6875 402.246094 363.976562 C 402.105469 363.265625 402 362.550781 401.929688 361.832031 C 401.859375 361.113281 401.820312 360.390625 401.820312 359.667969 C 401.820312 358.945312 401.859375 358.222656 401.929688 357.503906 C 402 356.78125 402.105469 356.066406 402.246094 355.359375 C 402.386719 354.648438 402.5625 353.949219 402.773438 353.257812 C 402.980469 352.5625 403.226562 351.882812 403.5 351.214844 C 403.777344 350.546875 404.085938 349.894531 404.425781 349.253906 C 404.769531 348.617188 405.140625 347.996094 405.542969 347.394531 C 405.941406 346.792969 406.371094 346.214844 406.832031 345.65625 C 407.289062 345.097656 407.773438 344.5625 408.285156 344.050781 C 408.796875 343.539062 409.332031 343.050781 409.890625 342.59375 C 410.449219 342.132812 411.027344 341.703125 411.628906 341.300781 C 412.230469 340.902344 412.847656 340.527344 413.488281 340.1875 C 414.125 339.847656 414.777344 339.539062 415.445312 339.261719 C 416.113281 338.984375 416.792969 338.742188 417.484375 338.53125 C 418.175781 338.320312 418.875 338.144531 419.582031 338.003906 C 420.292969 337.863281 421.007812 337.757812 421.726562 337.6875 C 422.445312 337.617188 423.167969 337.578125 423.890625 337.578125 C 424.613281 337.578125 425.332031 337.617188 426.050781 337.6875 C 426.769531 337.757812 427.484375 337.863281 428.195312 338.003906 C 428.902344 338.144531 429.601562 338.320312 430.292969 338.53125 C 430.984375 338.742188 431.664062 338.984375 432.332031 339.261719 C 433 339.539062 433.652344 339.847656 434.292969 340.1875 C 434.929688 340.527344 435.546875 340.902344 436.148438 341.300781 C 436.75 341.703125 437.328125 342.132812 437.886719 342.59375 C 438.445312 343.050781 438.980469 343.539062 439.492188 344.050781 C 440.003906 344.5625 440.488281 345.097656 440.945312 345.65625 C 441.40625 346.214844 441.835938 346.792969 442.238281 347.394531 C 442.636719 347.996094 443.007812 348.617188 443.351562 349.253906 C 443.691406 349.894531 444 350.546875 444.277344 351.214844 C 444.554688 351.882812 444.796875 352.5625 445.003906 353.257812 C 445.214844 353.949219 445.390625 354.648438 445.53125 355.359375 C 445.671875 356.066406 445.777344 356.78125 445.851562 357.503906 C 445.921875 358.222656 445.957031 358.945312 445.957031 359.667969 Z M 445.957031 359.667969 " fill-opacity="1" fill-rule="nonzero"/></g></svg>