<svg xmlns="http://www.w3.org/2000/svg" xmlns:xlink="http://www.w3.org/1999/xlink" width="1920" zoomAndPan="magnify" viewBox="0 0 1440 809.999993" height="1080" preserveAspectRatio="xMidYMid meet" version="1.0"><defs><clipPath id="5d1ae45c05"><path d="M 496.800781 96.574219 L 601.800781 96.574219 L 601.800781 340.324219 L 496.800781 340.324219 Z M 496.800781 96.574219 " clip-rule="nonzero"/></clipPath><clipPath id="f25f7afa0b"><path d="M 600.492188 247.265625 L 705.492188 247.265625 L 705.492188 491 L 600.492188 491 Z M 600.492188 247.265625 " clip-rule="nonzero"/></clipPath><clipPath id="c54fa0ee14"><path d="M 705.015625 61.328125 L 810.015625 61.328125 L 810.015625 305 L 705.015625 305 Z M 705.015625 61.328125 " clip-rule="nonzero"/></clipPath><clipPath id="10cfb31330"><path d="M 810.371094 193.78125 L 915.371094 193.78125 L 915.371094 437.53125 L 810.371094 437.53125 Z M 810.371094 193.78125 " clip-rule="nonzero"/></clipPath><clipPath id="2a95004d27"><path d="M 914.058594 343.503906 L 1019.058594 343.503906 L 1019.058594 587.253906 L 914.058594 587.253906 Z M 914.058594 343.503906 " clip-rule="nonzero"/></clipPath><clipPath id="e3d67d7fea"><path d="M 1008.082031 145.378906 L 1113.082031 145.378906 L 1113.082031 389 L 1008.082031 389 Z M 1008.082031 145.378906 " clip-rule="nonzero"/></clipPath><clipPath id="a95f515768"><path d="M 1124.691406 302.046875 L 1229.691406 302.046875 L 1229.691406 545.796875 L 1124.691406 545.796875 Z M 1124.691406 302.046875 " clip-rule="nonzero"/></clipPath></defs><path stroke-linecap="butt" transform="matrix(0.67692, 0, 0, 0.67692, 148.534144, 218.37329)" fill="none" stroke-linejoin="miter" d="M 0.00149604 5.501929 L 1688.427753 5.501929 " stroke="#000000" stroke-width="11" stroke-opacity="1" stroke-miterlimit="4"/><path stroke-linecap="butt" transform="matrix(0.67692, 0, 0, 0.67692, 148.534144, 319.290472)" fill="none" stroke-linejoin="miter" d="M 0.00149604 5.497321 L 1688.427753 5.497321 " stroke="#000000" stroke-width="11" stroke-opacity="1" stroke-miterlimit="4"/><path stroke-linecap="butt" transform="matrix(0.67692, 0, 0, 0.67692, 148.534144, 420.151631)" fill="none" stroke-linejoin="miter" d="M 0.00149604 5.500456 L 1688.427753 5.500456 " stroke="#000000" stroke-width="11" stroke-opacity="1" stroke-miterlimit="4"/><path stroke-linecap="butt" transform="matrix(0.67692, 0, 0, 0.67692, 148.534144, 521.012802)" fill="none" stroke-linejoin="miter" d="M 0.00149604 5.497803 L 1688.427753 5.497803 " stroke="#000000" stroke-width="11" stroke-opacity="1" stroke-miterlimit="4"/><path stroke-linecap="butt" transform="matrix(0.67692, 0, 0, 0.67692, 148.534144, 621.873733)" fill="none" stroke-linejoin="miter" d="M 0.00149604 5.501275 L 1688.427753 5.501275 " stroke="#000000" stroke-width="11" stroke-opacity="1" stroke-miterlimit="4"/><path fill="#000000" d="M 329.601562 599.363281 C 298.128906 597.53125 265.992188 577.761719 246.773438 555.070312 C 224.492188 528.757812 215.304688 492.988281 217.65625 463.613281 C 224.570312 377.300781 318.296875 326.285156 352.988281 288.585938 C 376.210938 263.351562 381.082031 251.050781 386.269531 238.070312 C 396.3125 212.945312 397.929688 183.511719 378.019531 181.3125 C 359.011719 179.214844 343.371094 209.152344 336.386719 229.609375 C 330.109375 248.011719 325.933594 266.476562 329.710938 294.210938 C 331.410156 306.671875 378.152344 654.476562 378.941406 659.867188 C 386.816406 713.746094 356.046875 736.039062 324.640625 740.003906 C 256.816406 748.570312 235.054688 679.546875 265.453125 653.332031 C 288.855469 633.148438 322.902344 650.476562 321.0625 683.65625 C 319.433594 713.050781 290.65625 713.914062 283.304688 713.242188 C 294.59375 733.515625 379.6875 744.105469 366.621094 652.515625 C 364.785156 639.644531 321.589844 312.804688 320.53125 305.476562 C 312.609375 250.722656 311.398438 207.382812 339.886719 156.804688 C 350.402344 138.132812 367.023438 126.082031 375.183594 127.65625 C 376.976562 128.003906 378.761719 128.664062 380.179688 130.128906 C 402.03125 152.675781 408.734375 202.679688 406.339844 231.402344 C 403.890625 260.8125 402.523438 291.257812 373.320312 326.761719 C 362.023438 340.503906 327.539062 370.769531 307.765625 388.160156 C 279.984375 412.597656 259.835938 433.933594 248.933594 459.679688 C 236.679688 488.613281 234.605469 525.035156 262.277344 557.351562 C 278.199219 575.609375 304.609375 588.566406 326.839844 588.84375 C 388.644531 589.609375 406.695312 559.101562 407.269531 524.546875 C 408.21875 467.648438 339.632812 446.140625 311.433594 485.261719 C 295.082031 507.945312 302.269531 531.820312 313.25 543.179688 C 317.019531 547.078125 321.230469 550.046875 325.210938 551.703125 C 326.65625 552.304688 330.050781 553.882812 329.089844 556.199219 C 328.285156 558.125 326.730469 558.234375 325.3125 558.0625 C 307.527344 555.925781 287.839844 538.90625 282.996094 509.628906 C 275.941406 466.953125 313.546875 416.328125 367.222656 424.609375 C 402.363281 430.027344 434.988281 460.3125 432.128906 516.699219 C 429.675781 565.027344 389.667969 602.855469 329.601562 599.359375 Z M 329.601562 599.363281 " fill-opacity="1" fill-rule="nonzero"/><g clip-path="url(#5d1ae45c05)"><path fill="#000000" d="M 575.652344 186.1875 L 601.800781 180.457031 L 601.800781 150.714844 L 575.652344 156.441406 L 575.652344 96.667969 L 568.636719 96.667969 L 568.636719 157.980469 L 529.140625 166.636719 L 529.140625 120.601562 L 522.125 120.601562 L 522.125 168.171875 L 496.796875 173.722656 L 496.796875 203.464844 L 522.125 197.917969 L 522.125 257.839844 L 496.796875 263.390625 L 496.796875 293.132812 L 522.125 287.585938 L 522.125 340.160156 L 529.140625 340.160156 L 529.140625 286.046875 L 568.636719 277.394531 L 568.636719 316.226562 L 575.652344 316.226562 L 575.652344 275.859375 L 601.800781 270.128906 L 601.800781 240.386719 L 575.652344 246.113281 Z M 568.636719 247.648438 L 529.140625 256.300781 L 529.140625 196.378906 L 568.636719 187.726562 L 568.636719 247.652344 Z M 568.636719 247.648438 " fill-opacity="1" fill-rule="nonzero"/></g><g clip-path="url(#f25f7afa0b)"><path fill="#000000" d="M 679.34375 336.878906 L 705.492188 331.148438 L 705.492188 301.40625 L 679.34375 307.136719 L 679.34375 247.359375 L 672.324219 247.359375 L 672.324219 308.671875 L 632.832031 317.328125 L 632.832031 271.296875 L 625.8125 271.296875 L 625.8125 318.863281 L 600.488281 324.414062 L 600.488281 354.15625 L 625.8125 348.609375 L 625.8125 408.535156 L 600.488281 414.082031 L 600.488281 443.824219 L 625.8125 438.277344 L 625.8125 490.855469 L 632.832031 490.855469 L 632.832031 436.738281 L 672.324219 428.089844 L 672.324219 466.917969 L 679.34375 466.917969 L 679.34375 426.550781 L 705.492188 420.820312 L 705.492188 391.078125 L 679.34375 396.804688 Z M 672.324219 398.339844 L 632.832031 406.992188 L 632.832031 347.074219 L 672.324219 338.417969 L 672.324219 398.34375 Z M 672.324219 398.339844 " fill-opacity="1" fill-rule="nonzero"/></g><g clip-path="url(#c54fa0ee14)"><path fill="#000000" d="M 783.867188 150.9375 L 810.015625 145.210938 L 810.015625 115.464844 L 783.867188 121.195312 L 783.867188 61.421875 L 776.847656 61.421875 L 776.847656 122.734375 L 737.355469 131.386719 L 737.355469 85.355469 L 730.335938 85.355469 L 730.335938 132.921875 L 705.011719 138.472656 L 705.011719 168.21875 L 730.335938 162.667969 L 730.335938 222.59375 L 705.011719 228.140625 L 705.011719 257.882812 L 730.335938 252.335938 L 730.335938 304.914062 L 737.355469 304.914062 L 737.355469 250.800781 L 776.847656 242.148438 L 776.847656 280.980469 L 783.867188 280.980469 L 783.867188 240.609375 L 810.015625 234.878906 L 810.015625 205.136719 L 783.867188 210.867188 Z M 776.847656 212.398438 L 737.355469 221.050781 L 737.355469 161.132812 L 776.847656 152.476562 L 776.847656 212.402344 Z M 776.847656 212.398438 " fill-opacity="1" fill-rule="nonzero"/></g><g clip-path="url(#10cfb31330)"><path fill="#000000" d="M 889.222656 283.390625 L 915.371094 277.664062 L 915.371094 247.917969 L 889.222656 253.648438 L 889.222656 193.875 L 882.203125 193.875 L 882.203125 255.1875 L 842.710938 263.839844 L 842.710938 217.808594 L 835.691406 217.808594 L 835.691406 265.375 L 810.367188 270.925781 L 810.367188 300.671875 L 835.691406 295.121094 L 835.691406 355.046875 L 810.367188 360.59375 L 810.367188 390.335938 L 835.691406 384.789062 L 835.691406 437.367188 L 842.710938 437.367188 L 842.710938 383.253906 L 882.203125 374.601562 L 882.203125 413.433594 L 889.222656 413.433594 L 889.222656 373.0625 L 915.371094 367.332031 L 915.371094 337.589844 L 889.222656 343.320312 Z M 882.203125 344.851562 L 842.710938 353.503906 L 842.710938 293.585938 L 882.203125 284.929688 L 882.203125 344.855469 Z M 882.203125 344.851562 " fill-opacity="1" fill-rule="nonzero"/></g><g clip-path="url(#2a95004d27)"><path fill="#000000" d="M 992.910156 433.113281 L 1019.058594 427.386719 L 1019.058594 397.640625 L 992.910156 403.371094 L 992.910156 343.597656 L 985.894531 343.597656 L 985.894531 404.90625 L 946.398438 413.5625 L 946.398438 367.53125 L 939.382812 367.53125 L 939.382812 415.097656 L 914.054688 420.648438 L 914.054688 450.390625 L 939.382812 444.84375 L 939.382812 504.769531 L 914.054688 510.316406 L 914.054688 540.058594 L 939.382812 534.511719 L 939.382812 587.089844 L 946.398438 587.089844 L 946.398438 532.976562 L 985.894531 524.324219 L 985.894531 563.15625 L 992.910156 563.15625 L 992.910156 522.785156 L 1019.058594 517.054688 L 1019.058594 487.3125 L 992.910156 493.042969 Z M 985.894531 494.574219 L 946.398438 503.226562 L 946.398438 443.308594 L 985.894531 434.652344 L 985.894531 494.578125 Z M 985.894531 494.574219 " fill-opacity="1" fill-rule="nonzero"/></g><g clip-path="url(#e3d67d7fea)"><path fill="#000000" d="M 1086.933594 234.988281 L 1113.082031 229.261719 L 1113.082031 199.515625 L 1086.933594 205.246094 L 1086.933594 145.472656 L 1079.914062 145.472656 L 1079.914062 206.785156 L 1040.421875 215.4375 L 1040.421875 169.40625 L 1033.402344 169.40625 L 1033.402344 216.972656 L 1008.078125 222.523438 L 1008.078125 252.269531 L 1033.402344 246.71875 L 1033.402344 306.644531 L 1008.078125 312.191406 L 1008.078125 341.933594 L 1033.402344 336.386719 L 1033.402344 388.964844 L 1040.421875 388.964844 L 1040.421875 334.851562 L 1079.914062 326.199219 L 1079.914062 365.03125 L 1086.933594 365.03125 L 1086.933594 324.660156 L 1113.082031 318.929688 L 1113.082031 289.1875 L 1086.933594 294.917969 Z M 1079.914062 296.449219 L 1040.421875 305.101562 L 1040.421875 245.183594 L 1079.914062 236.527344 L 1079.914062 296.453125 Z M 1079.914062 296.449219 " fill-opacity="1" fill-rule="nonzero"/></g><g clip-path="url(#a95f515768)"><path fill="#000000" d="M 1203.539062 391.660156 L 1229.691406 385.929688 L 1229.691406 356.1875 L 1203.539062 361.917969 L 1203.539062 302.140625 L 1196.523438 302.140625 L 1196.523438 363.453125 L 1157.03125 372.109375 L 1157.03125 326.078125 L 1150.011719 326.078125 L 1150.011719 373.644531 L 1124.6875 379.195312 L 1124.6875 408.9375 L 1150.011719 403.390625 L 1150.011719 463.316406 L 1124.6875 468.863281 L 1124.6875 498.605469 L 1150.011719 493.058594 L 1150.011719 545.636719 L 1157.03125 545.636719 L 1157.03125 491.519531 L 1196.523438 482.867188 L 1196.523438 521.699219 L 1203.539062 521.699219 L 1203.539062 481.332031 L 1229.691406 475.601562 L 1229.691406 445.859375 L 1203.539062 451.585938 Z M 1196.523438 453.121094 L 1157.03125 461.773438 L 1157.03125 401.855469 L 1196.523438 393.199219 L 1196.523438 453.125 Z M 1196.523438 453.121094 " fill-opacity="1" fill-rule="nonzero"/></g></svg>