<svg xmlns="http://www.w3.org/2000/svg" xmlns:xlink="http://www.w3.org/1999/xlink" width="1920" zoomAndPan="magnify" viewBox="0 0 1440 809.999993" height="1080" preserveAspectRatio="xMidYMid meet" version="1.0"><defs><clipPath id="73596760a9"><path d="M 530.402344 257.105469 L 607 257.105469 L 607 487.355469 L 530.402344 487.355469 Z M 530.402344 257.105469 " clip-rule="nonzero"/></clipPath></defs><path stroke-linecap="butt" transform="matrix(0.67692, 0, 0, 0.67692, 148.534144, 218.37329)" fill="none" stroke-linejoin="miter" d="M 0.00149604 5.501929 L 1688.427753 5.501929 " stroke="#000000" stroke-width="11" stroke-opacity="1" stroke-miterlimit="4"/><path stroke-linecap="butt" transform="matrix(0.67692, 0, 0, 0.67692, 148.534144, 319.290472)" fill="none" stroke-linejoin="miter" d="M 0.00149604 5.497321 L 1688.427753 5.497321 " stroke="#000000" stroke-width="11" stroke-opacity="1" stroke-miterlimit="4"/><path stroke-linecap="butt" transform="matrix(0.67692, 0, 0, 0.67692, 148.534144, 420.151631)" fill="none" stroke-linejoin="miter" d="M 0.00149604 5.500456 L 1688.427753 5.500456 " stroke="#000000" stroke-width="11" stroke-opacity="1" stroke-miterlimit="4"/><path stroke-linecap="butt" transform="matrix(0.67692, 0, 0, 0.67692, 148.534144, 521.012802)" fill="none" stroke-linejoin="miter" d="M 0.00149604 5.497803 L 1688.427753 5.497803 " stroke="#000000" stroke-width="11" stroke-opacity="1" stroke-miterlimit="4"/><path stroke-linecap="butt" transform="matrix(0.67692, 0, 0, 0.67692, 148.534144, 621.873733)" fill="none" stroke-linejoin="miter" d="M 0.00149604 5.501275 L 1688.427753 5.501275 " stroke="#000000" stroke-width="11" stroke-opacity="1" stroke-miterlimit="4"/><path fill="#000000" d="M 329.601562 599.363281 C 298.128906 597.53125 265.992188 577.761719 246.773438 555.070312 C 224.492188 528.757812 215.304688 492.988281 217.65625 463.613281 C 224.570312 377.300781 318.296875 326.285156 352.988281 288.585938 C 376.210938 263.351562 381.082031 251.050781 386.269531 238.070312 C 396.3125 212.945312 397.929688 183.511719 378.019531 181.3125 C 359.011719 179.214844 343.371094 209.152344 336.386719 229.609375 C 330.109375 248.011719 325.933594 266.476562 329.710938 294.210938 C 331.410156 306.671875 378.152344 654.476562 378.941406 659.867188 C 386.816406 713.746094 356.046875 736.039062 324.640625 740.003906 C 256.816406 748.570312 235.054688 679.546875 265.453125 653.332031 C 288.855469 633.148438 322.902344 650.476562 321.0625 683.65625 C 319.433594 713.050781 290.65625 713.914062 283.304688 713.242188 C 294.59375 733.515625 379.6875 744.105469 366.621094 652.515625 C 364.785156 639.644531 321.589844 312.804688 320.53125 305.476562 C 312.609375 250.722656 311.398438 207.382812 339.886719 156.804688 C 350.402344 138.132812 367.023438 126.082031 375.183594 127.65625 C 376.976562 128.003906 378.761719 128.664062 380.179688 130.128906 C 402.03125 152.675781 408.734375 202.679688 406.339844 231.402344 C 403.890625 260.8125 402.523438 291.257812 373.320312 326.761719 C 362.023438 340.503906 327.539062 370.769531 307.765625 388.160156 C 279.984375 412.597656 259.835938 433.933594 248.933594 459.679688 C 236.679688 488.613281 234.605469 525.035156 262.277344 557.351562 C 278.199219 575.609375 304.609375 588.566406 326.839844 588.84375 C 388.644531 589.609375 406.695312 559.101562 407.269531 524.546875 C 408.21875 467.648438 339.632812 446.140625 311.433594 485.261719 C 295.082031 507.945312 302.269531 531.820312 313.25 543.179688 C 317.019531 547.078125 321.230469 550.046875 325.210938 551.703125 C 326.65625 552.304688 330.050781 553.882812 329.089844 556.199219 C 328.285156 558.125 326.730469 558.234375 325.3125 558.0625 C 307.527344 555.925781 287.839844 538.90625 282.996094 509.628906 C 275.941406 466.953125 313.546875 416.328125 367.222656 424.609375 C 402.363281 430.027344 434.988281 460.3125 432.128906 516.699219 C 429.675781 565.027344 389.667969 602.855469 329.601562 599.359375 Z M 329.601562 599.363281 " fill-opacity="1" fill-rule="nonzero"/><g clip-path="url(#73596760a9)"><path fill="#000000" d="M 540.042969 473.175781 L 540.042969 381.792969 C 579.769531 359.386719 612.203125 413.371094 540.042969 473.175781 Z M 540.042969 375.597656 L 540.042969 257.269531 L 530.410156 257.269531 L 530.410156 487.359375 C 657.140625 418.707031 601.789062 331.269531 540.042969 375.597656 " fill-opacity="1" fill-rule="nonzero"/></g></svg>