<svg xmlns="http://www.w3.org/2000/svg" xmlns:xlink="http://www.w3.org/1999/xlink" width="1920" zoomAndPan="magnify" viewBox="0 0 1440 809.999993" height="1080" preserveAspectRatio="xMidYMid meet" version="1.0"><defs><clipPath id="9a2d34e579"><path d="M 496.800781 96.574219 L 601.800781 96.574219 L 601.800781 340.324219 L 496.800781 340.324219 Z M 496.800781 96.574219 " clip-rule="nonzero"/></clipPath></defs><path stroke-linecap="butt" transform="matrix(0.67692, 0, 0, 0.67692, 148.534144, 218.373172)" fill="none" stroke-linejoin="miter" d="M 0.00149604 5.502103 L 1688.427753 5.502103 " stroke="#000000" stroke-width="11" stroke-opacity="1" stroke-miterlimit="4"/><path stroke-linecap="butt" transform="matrix(0.67692, 0, 0, 0.67692, 148.534144, 319.290472)" fill="none" stroke-linejoin="miter" d="M 0.00149604 5.497321 L 1688.427753 5.497321 " stroke="#000000" stroke-width="11" stroke-opacity="1" stroke-miterlimit="4"/><path stroke-linecap="butt" transform="matrix(0.67692, 0, 0, 0.67692, 148.534144, 420.151631)" fill="none" stroke-linejoin="miter" d="M 0.00149604 5.500456 L 1688.427753 5.500456 " stroke="#000000" stroke-width="11" stroke-opacity="1" stroke-miterlimit="4"/><path stroke-linecap="butt" transform="matrix(0.67692, 0, 0, 0.67692, 148.534144, 521.012682)" fill="none" stroke-linejoin="miter" d="M 0.00149604 5.49798 L 1688.427753 5.49798 " stroke="#000000" stroke-width="11" stroke-opacity="1" stroke-miterlimit="4"/><path stroke-linecap="butt" transform="matrix(0.67692, 0, 0, 0.67692, 148.534144, 621.873733)" fill="none" stroke-linejoin="miter" d="M 0.00149604 5.501275 L 1688.427753 5.501275 " stroke="#000000" stroke-width="11" stroke-opacity="1" stroke-miterlimit="4"/><path fill="#000000" d="M 329.601562 599.363281 C 298.128906 597.53125 265.992188 577.761719 246.773438 555.070312 C 224.492188 528.757812 215.304688 492.988281 217.65625 463.613281 C 224.570312 377.300781 318.296875 326.285156 352.988281 288.585938 C 376.210938 263.351562 381.082031 251.050781 386.269531 238.070312 C 396.3125 212.945312 397.929688 183.511719 378.019531 181.3125 C 359.011719 179.214844 343.371094 209.152344 336.386719 229.609375 C 330.109375 248.011719 325.933594 266.476562 329.710938 294.210938 C 331.410156 306.671875 378.152344 654.476562 378.941406 659.867188 C 386.816406 713.746094 356.046875 736.039062 324.640625 740.003906 C 256.816406 748.570312 235.054688 679.546875 265.453125 653.332031 C 288.855469 633.148438 322.902344 650.476562 321.0625 683.65625 C 319.433594 713.050781 290.65625 713.914062 283.304688 713.242188 C 294.59375 733.515625 379.6875 744.105469 366.621094 652.515625 C 364.785156 639.644531 321.589844 312.804688 320.53125 305.476562 C 312.609375 250.722656 311.398438 207.382812 339.886719 156.804688 C 350.402344 138.132812 367.023438 126.082031 375.183594 127.65625 C 376.976562 128.003906 378.761719 128.664062 380.179688 130.128906 C 402.03125 152.675781 408.734375 202.679688 406.339844 231.402344 C 403.890625 260.8125 402.523438 291.257812 373.320312 326.761719 C 362.023438 340.503906 327.539062 370.769531 307.765625 388.160156 C 279.984375 412.597656 259.835938 433.933594 248.933594 459.679688 C 236.679688 488.613281 234.605469 525.035156 262.277344 557.351562 C 278.199219 575.609375 304.609375 588.566406 326.839844 588.84375 C 388.644531 589.609375 406.695312 559.101562 407.269531 524.546875 C 408.21875 467.648438 339.632812 446.140625 311.433594 485.261719 C 295.082031 507.945312 302.269531 531.820312 313.25 543.179688 C 317.019531 547.078125 321.230469 550.046875 325.210938 551.703125 C 326.65625 552.304688 330.050781 553.882812 329.089844 556.199219 C 328.285156 558.125 326.730469 558.234375 325.3125 558.0625 C 307.527344 555.925781 287.839844 538.90625 282.996094 509.628906 C 275.941406 466.953125 313.546875 416.328125 367.222656 424.609375 C 402.363281 430.027344 434.988281 460.3125 432.128906 516.699219 C 429.675781 565.027344 389.667969 602.855469 329.601562 599.359375 Z M 329.601562 599.363281 " fill-opacity="1" fill-rule="nonzero"/><g clip-path="url(#9a2d34e579)"><path fill="#000000" d="M 575.652344 186.1875 L 601.800781 180.457031 L 601.800781 150.714844 L 575.652344 156.441406 L 575.652344 96.667969 L 568.636719 96.667969 L 568.636719 157.980469 L 529.140625 166.636719 L 529.140625 120.601562 L 522.125 120.601562 L 522.125 168.171875 L 496.796875 173.722656 L 496.796875 203.464844 L 522.125 197.917969 L 522.125 257.839844 L 496.796875 263.390625 L 496.796875 293.132812 L 522.125 287.585938 L 522.125 340.160156 L 529.140625 340.160156 L 529.140625 286.046875 L 568.636719 277.394531 L 568.636719 316.226562 L 575.652344 316.226562 L 575.652344 275.859375 L 601.800781 270.128906 L 601.800781 240.386719 L 575.652344 246.113281 Z M 568.636719 247.648438 L 529.140625 256.300781 L 529.140625 196.378906 L 568.636719 187.722656 L 568.636719 247.652344 Z M 568.636719 247.648438 " fill-opacity="1" fill-rule="nonzero"/></g></svg>