<svg xmlns="http://www.w3.org/2000/svg" xmlns:xlink="http://www.w3.org/1999/xlink" width="1920" zoomAndPan="magnify" viewBox="0 0 1440 1109.999945" height="1480" preserveAspectRatio="xMidYMid meet" version="1.0"><defs><clipPath id="9c226ac5b5"><path d="M 729.707031 770.082031 L 857 770.082031 L 857 876.488281 L 729.707031 876.488281 Z M 729.707031 770.082031 " clip-rule="nonzero"/></clipPath><clipPath id="f9b23bd575"><path d="M 793.355469 770.082031 C 758.203125 770.082031 729.707031 793.902344 729.707031 823.285156 C 729.707031 852.667969 758.203125 876.488281 793.355469 876.488281 C 828.507812 876.488281 857.003906 852.667969 857.003906 823.285156 C 857.003906 793.902344 828.507812 770.082031 793.355469 770.082031 Z M 793.355469 770.082031 " clip-rule="nonzero"/></clipPath><clipPath id="b784a3c3d5"><path d="M 729.707031 770.085938 L 857 770.085938 L 857 876.582031 L 729.707031 876.582031 Z M 729.707031 770.085938 " clip-rule="nonzero"/></clipPath><clipPath id="41e87c1c36"><path d="M 793.351562 770.085938 C 758.199219 770.085938 729.707031 793.902344 729.707031 823.28125 C 729.707031 852.660156 758.199219 876.476562 793.351562 876.476562 C 828.5 876.476562 856.996094 852.660156 856.996094 823.28125 C 856.996094 793.902344 828.5 770.085938 793.351562 770.085938 Z M 793.351562 770.085938 " clip-rule="nonzero"/></clipPath><clipPath id="f66ec78838"><path d="M 230.8125 344 L 486 344 L 486 726.414062 L 230.8125 726.414062 Z M 230.8125 344 " clip-rule="nonzero"/></clipPath><clipPath id="ee0d24a20a"><path d="M 514 366 L 569.8125 366 L 569.8125 422 L 514 422 Z M 514 366 " clip-rule="nonzero"/></clipPath><clipPath id="f1eb8a9234"><path d="M 514 467 L 569.8125 467 L 569.8125 523 L 514 523 Z M 514 467 " clip-rule="nonzero"/></clipPath></defs><path stroke-linecap="butt" transform="matrix(0.75, 0, 0, 0.75, 204.72012, 344.315807)" fill="none" stroke-linejoin="miter" d="M -0.00182694 5.000799 L 1338.628504 5.000799 " stroke="#000000" stroke-width="10" stroke-opacity="1" stroke-miterlimit="4"/><path stroke-linecap="butt" transform="matrix(0.75, 0, 0, 0.75, 204.72012, 450.778067)" fill="none" stroke-linejoin="miter" d="M -0.00182694 4.999036 L 1338.628504 4.999036 " stroke="#000000" stroke-width="10" stroke-opacity="1" stroke-miterlimit="4"/><path stroke-linecap="butt" transform="matrix(0.75, 0, 0, 0.75, 204.72012, 557.180785)" fill="none" stroke-linejoin="miter" d="M -0.00182694 4.998537 L 1338.628504 4.998537 " stroke="#000000" stroke-width="10" stroke-opacity="1" stroke-miterlimit="4"/><path stroke-linecap="butt" transform="matrix(0.75, 0, 0, 0.75, 204.72012, 663.583503)" fill="none" stroke-linejoin="miter" d="M -0.00182694 4.998037 L 1338.628504 4.998037 " stroke="#000000" stroke-width="10" stroke-opacity="1" stroke-miterlimit="4"/><path stroke-linecap="butt" transform="matrix(0.75, 0, 0, 0.75, 204.72012, 769.986462)" fill="none" stroke-linejoin="miter" d="M -0.00182694 5.002426 L 1338.628504 5.002426 " stroke="#000000" stroke-width="10" stroke-opacity="1" stroke-miterlimit="4"/><g clip-path="url(#9c226ac5b5)"><g clip-path="url(#f9b23bd575)"><path fill="#000000" d="M 729.707031 770.082031 L 856.890625 770.082031 L 856.890625 876.484375 L 729.707031 876.484375 Z M 729.707031 770.082031 " fill-opacity="1" fill-rule="nonzero"/></g></g><g clip-path="url(#b784a3c3d5)"><g clip-path="url(#41e87c1c36)"><path stroke-linecap="butt" transform="matrix(0.75, 0, 0, 0.75, 729.705257, 770.084214)" fill="none" stroke-linejoin="miter" d="M 84.861748 0.00229833 C 37.991952 0.00229833 0.00236551 31.75751 0.00236551 70.929388 C 0.00236551 110.101267 37.991952 141.856478 84.861748 141.856478 C 131.726336 141.856478 169.721131 110.101267 169.721131 70.929388 C 169.721131 31.75751 131.726336 0.00229833 84.861748 0.00229833 Z M 84.861748 0.00229833 " stroke="#000000" stroke-width="46" stroke-opacity="1" stroke-miterlimit="4"/></g></g><g clip-path="url(#f66ec78838)"><path fill="#000000" d="M 232.996094 717.296875 C 268.933594 692.507812 482.386719 537.253906 406.085938 396.609375 C 404.765625 394.160156 403.304688 391.800781 401.707031 389.527344 C 400.105469 387.25 398.378906 385.078125 396.523438 383.003906 C 394.671875 380.933594 392.699219 378.976562 390.617188 377.136719 C 388.53125 375.296875 386.347656 373.582031 384.0625 372 C 381.773438 370.414062 379.40625 368.96875 376.949219 367.664062 C 374.492188 366.359375 371.96875 365.199219 369.378906 364.191406 C 366.785156 363.183594 364.144531 362.328125 361.453125 361.628906 C 358.761719 360.929688 356.039062 360.390625 353.28125 360.011719 C 326.816406 356.394531 291.554688 360.554688 272.289062 400.199219 C 268.03125 408.964844 274.757812 419.058594 284.492188 418.628906 C 288.105469 418.425781 291.671875 417.910156 295.195312 417.085938 C 305.382812 414.820312 316.066406 415.773438 325.535156 420.167969 C 337.980469 425.941406 350.292969 437.167969 343.410156 458.535156 C 342.164062 462.316406 340.503906 465.910156 338.429688 469.308594 C 336.351562 472.707031 333.914062 475.824219 331.117188 478.664062 C 320.589844 489.476562 299.351562 504.816406 272.585938 490.160156 C 249.648438 477.597656 236.9375 451.90625 240.691406 426.027344 C 243.828125 404.355469 257.605469 378.152344 299.660156 358.972656 C 299.660156 358.972656 377.71875 319.910156 442.21875 369.316406 C 448.496094 374.113281 454.109375 379.585938 459.070312 385.730469 C 464.027344 391.878906 468.183594 398.527344 471.542969 405.671875 C 482.667969 429.425781 494.125 471.753906 473.953125 526.0625 C 461.125 560.597656 438.746094 590.769531 409.773438 613.523438 C 372.109375 643.097656 299.773438 696.910156 237.742188 725.59375 C 237.316406 725.789062 236.871094 725.921875 236.40625 725.988281 C 235.941406 726.054688 235.476562 726.054688 235.011719 725.984375 C 234.550781 725.914062 234.105469 725.78125 233.679688 725.582031 C 233.253906 725.382812 232.867188 725.125 232.519531 724.8125 C 232.25 724.570312 232.007812 724.300781 231.800781 724.003906 C 231.59375 723.707031 231.417969 723.390625 231.28125 723.058594 C 231.144531 722.722656 231.046875 722.375 230.988281 722.019531 C 230.929688 721.660156 230.914062 721.300781 230.9375 720.9375 C 230.957031 720.578125 231.023438 720.222656 231.125 719.875 C 231.226562 719.527344 231.367188 719.199219 231.546875 718.882812 C 231.726562 718.566406 231.9375 718.273438 232.179688 718.007812 C 232.425781 717.738281 232.695312 717.503906 232.996094 717.296875 Z M 232.996094 717.296875 " fill-opacity="1" fill-rule="nonzero"/></g><g clip-path="url(#ee0d24a20a)"><path fill="#000000" d="M 569.761719 394.378906 C 569.761719 395.273438 569.71875 396.167969 569.628906 397.0625 C 569.542969 397.957031 569.410156 398.839844 569.234375 399.722656 C 569.058594 400.601562 568.84375 401.472656 568.582031 402.328125 C 568.320312 403.1875 568.019531 404.03125 567.675781 404.859375 C 567.332031 405.691406 566.949219 406.5 566.527344 407.289062 C 566.101562 408.082031 565.640625 408.851562 565.144531 409.597656 C 564.644531 410.34375 564.109375 411.0625 563.542969 411.757812 C 562.972656 412.449219 562.371094 413.113281 561.734375 413.75 C 561.101562 414.382812 560.4375 414.984375 559.742188 415.554688 C 559.050781 416.121094 558.328125 416.65625 557.582031 417.15625 C 556.835938 417.652344 556.070312 418.113281 555.277344 418.539062 C 554.484375 418.960938 553.675781 419.34375 552.847656 419.6875 C 552.015625 420.03125 551.171875 420.332031 550.3125 420.59375 C 549.457031 420.851562 548.585938 421.070312 547.707031 421.246094 C 546.824219 421.421875 545.9375 421.550781 545.046875 421.640625 C 544.152344 421.726562 543.257812 421.773438 542.359375 421.773438 C 541.464844 421.773438 540.566406 421.726562 539.675781 421.640625 C 538.78125 421.550781 537.894531 421.421875 537.015625 421.246094 C 536.132812 421.070312 535.265625 420.851562 534.40625 420.59375 C 533.546875 420.332031 532.703125 420.03125 531.875 419.6875 C 531.046875 419.34375 530.234375 418.960938 529.445312 418.539062 C 528.652344 418.113281 527.882812 417.652344 527.136719 417.15625 C 526.390625 416.65625 525.671875 416.121094 524.976562 415.554688 C 524.285156 414.984375 523.621094 414.382812 522.984375 413.75 C 522.351562 413.113281 521.75 412.449219 521.179688 411.757812 C 520.609375 411.0625 520.074219 410.34375 519.578125 409.597656 C 519.078125 408.851562 518.617188 408.082031 518.195312 407.289062 C 517.773438 406.5 517.386719 405.691406 517.042969 404.859375 C 516.703125 404.03125 516.398438 403.1875 516.140625 402.328125 C 515.878906 401.472656 515.660156 400.601562 515.484375 399.722656 C 515.308594 398.839844 515.179688 397.957031 515.089844 397.0625 C 515.003906 396.167969 514.960938 395.273438 514.960938 394.378906 C 514.960938 393.480469 515.003906 392.585938 515.089844 391.691406 C 515.179688 390.800781 515.308594 389.914062 515.484375 389.03125 C 515.660156 388.152344 515.878906 387.285156 516.140625 386.425781 C 516.398438 385.566406 516.703125 384.722656 517.042969 383.894531 C 517.386719 383.066406 517.773438 382.253906 518.195312 381.464844 C 518.617188 380.671875 519.078125 379.902344 519.578125 379.15625 C 520.074219 378.410156 520.609375 377.691406 521.179688 377 C 521.75 376.304688 522.351562 375.640625 522.984375 375.007812 C 523.621094 374.371094 524.285156 373.769531 524.976562 373.199219 C 525.671875 372.632812 526.390625 372.097656 527.136719 371.597656 C 527.882812 371.101562 528.652344 370.640625 529.445312 370.21875 C 530.234375 369.792969 531.046875 369.410156 531.875 369.066406 C 532.703125 368.722656 533.546875 368.421875 534.40625 368.160156 C 535.265625 367.902344 536.132812 367.683594 537.015625 367.507812 C 537.894531 367.332031 538.78125 367.203125 539.675781 367.113281 C 540.566406 367.027344 541.464844 366.984375 542.359375 366.984375 C 543.257812 366.984375 544.152344 367.027344 545.046875 367.113281 C 545.9375 367.203125 546.824219 367.332031 547.707031 367.507812 C 548.585938 367.683594 549.457031 367.902344 550.3125 368.160156 C 551.171875 368.421875 552.015625 368.722656 552.847656 369.066406 C 553.675781 369.410156 554.484375 369.792969 555.277344 370.21875 C 556.070312 370.640625 556.835938 371.101562 557.582031 371.597656 C 558.328125 372.097656 559.050781 372.632812 559.742188 373.199219 C 560.4375 373.769531 561.101562 374.371094 561.734375 375.007812 C 562.371094 375.640625 562.972656 376.304688 563.542969 377 C 564.109375 377.691406 564.644531 378.410156 565.144531 379.15625 C 565.640625 379.902344 566.101562 380.671875 566.527344 381.464844 C 566.949219 382.253906 567.332031 383.066406 567.675781 383.894531 C 568.019531 384.722656 568.320312 385.566406 568.582031 386.425781 C 568.84375 387.285156 569.058594 388.152344 569.234375 389.03125 C 569.410156 389.914062 569.542969 390.800781 569.628906 391.691406 C 569.71875 392.585938 569.761719 393.480469 569.761719 394.378906 Z M 569.761719 394.378906 " fill-opacity="1" fill-rule="nonzero"/></g><g clip-path="url(#f1eb8a9234)"><path fill="#000000" d="M 569.761719 495.15625 C 569.761719 496.054688 569.71875 496.949219 569.628906 497.84375 C 569.542969 498.734375 569.410156 499.621094 569.234375 500.503906 C 569.058594 501.382812 568.84375 502.25 568.582031 503.109375 C 568.320312 503.96875 568.019531 504.8125 567.675781 505.640625 C 567.332031 506.46875 566.949219 507.28125 566.527344 508.070312 C 566.101562 508.863281 565.640625 509.632812 565.144531 510.378906 C 564.644531 511.125 564.109375 511.84375 563.542969 512.535156 C 562.972656 513.230469 562.371094 513.894531 561.734375 514.527344 C 561.101562 515.164062 560.4375 515.765625 559.742188 516.335938 C 559.050781 516.902344 558.328125 517.4375 557.582031 517.9375 C 556.835938 518.433594 556.070312 518.894531 555.277344 519.316406 C 554.484375 519.742188 553.675781 520.125 552.847656 520.46875 C 552.015625 520.808594 551.171875 521.113281 550.3125 521.371094 C 549.457031 521.632812 548.585938 521.851562 547.707031 522.027344 C 546.824219 522.199219 545.9375 522.332031 545.046875 522.421875 C 544.152344 522.507812 543.257812 522.550781 542.359375 522.550781 C 541.464844 522.550781 540.566406 522.507812 539.675781 522.421875 C 538.78125 522.332031 537.894531 522.199219 537.015625 522.027344 C 536.132812 521.851562 535.265625 521.632812 534.40625 521.371094 C 533.546875 521.113281 532.703125 520.808594 531.875 520.46875 C 531.046875 520.125 530.234375 519.742188 529.445312 519.316406 C 528.652344 518.894531 527.882812 518.433594 527.136719 517.933594 C 526.390625 517.4375 525.671875 516.902344 524.976562 516.335938 C 524.285156 515.765625 523.621094 515.164062 522.984375 514.527344 C 522.351562 513.894531 521.75 513.230469 521.179688 512.535156 C 520.609375 511.84375 520.074219 511.125 519.578125 510.378906 C 519.078125 509.632812 518.617188 508.863281 518.195312 508.070312 C 517.773438 507.28125 517.386719 506.46875 517.042969 505.640625 C 516.703125 504.8125 516.398438 503.96875 516.140625 503.109375 C 515.878906 502.25 515.660156 501.382812 515.484375 500.503906 C 515.308594 499.621094 515.179688 498.734375 515.089844 497.84375 C 515.003906 496.949219 514.960938 496.054688 514.960938 495.15625 C 514.960938 494.261719 515.003906 493.367188 515.089844 492.472656 C 515.179688 491.578125 515.308594 490.691406 515.484375 489.8125 C 515.660156 488.933594 515.878906 488.0625 516.140625 487.207031 C 516.398438 486.347656 516.703125 485.503906 517.042969 484.675781 C 517.386719 483.84375 517.773438 483.035156 518.195312 482.242188 C 518.617188 481.453125 519.078125 480.683594 519.578125 479.9375 C 520.074219 479.191406 520.609375 478.472656 521.179688 477.777344 C 521.75 477.085938 522.351562 476.421875 522.984375 475.785156 C 523.621094 475.152344 524.285156 474.550781 524.976562 473.980469 C 525.671875 473.414062 526.390625 472.878906 527.136719 472.378906 C 527.882812 471.882812 528.652344 471.421875 529.445312 470.996094 C 530.234375 470.574219 531.046875 470.191406 531.875 469.847656 C 532.703125 469.503906 533.546875 469.203125 534.40625 468.941406 C 535.265625 468.683594 536.132812 468.464844 537.015625 468.289062 C 537.894531 468.113281 538.78125 467.984375 539.675781 467.894531 C 540.566406 467.808594 541.464844 467.761719 542.359375 467.761719 C 543.257812 467.761719 544.152344 467.808594 545.046875 467.894531 C 545.9375 467.984375 546.824219 468.113281 547.707031 468.289062 C 548.585938 468.464844 549.457031 468.683594 550.3125 468.941406 C 551.171875 469.203125 552.015625 469.503906 552.847656 469.847656 C 553.675781 470.191406 554.484375 470.574219 555.277344 470.996094 C 556.070312 471.421875 556.835938 471.882812 557.582031 472.378906 C 558.328125 472.878906 559.050781 473.414062 559.742188 473.980469 C 560.4375 474.550781 561.101562 475.152344 561.734375 475.785156 C 562.371094 476.421875 562.972656 477.085938 563.542969 477.777344 C 564.109375 478.472656 564.644531 479.191406 565.144531 479.9375 C 565.640625 480.683594 566.101562 481.453125 566.527344 482.242188 C 566.949219 483.035156 567.332031 483.84375 567.675781 484.675781 C 568.019531 485.503906 568.320312 486.347656 568.582031 487.207031 C 568.84375 488.0625 569.058594 488.933594 569.234375 489.8125 C 569.410156 490.691406 569.542969 491.578125 569.628906 492.472656 C 569.71875 493.367188 569.761719 494.261719 569.761719 495.15625 Z M 569.761719 495.15625 " fill-opacity="1" fill-rule="nonzero"/></g></svg>