<svg xmlns="http://www.w3.org/2000/svg" xmlns:xlink="http://www.w3.org/1999/xlink" width="1920" zoomAndPan="magnify" viewBox="0 0 1440 1109.999945" height="1480" preserveAspectRatio="xMidYMid meet" version="1.0"><defs><clipPath id="63c4969375"><path d="M 720 348.066406 L 847.601562 348.066406 L 847.601562 454.46875 L 720 454.46875 Z M 720 348.066406 " clip-rule="nonzero"/></clipPath><clipPath id="10e8aa97de"><path d="M 783.648438 348.066406 C 748.496094 348.066406 720 371.886719 720 401.265625 C 720 430.648438 748.496094 454.46875 783.648438 454.46875 C 818.804688 454.46875 847.300781 430.648438 847.300781 401.265625 C 847.300781 371.886719 818.804688 348.066406 783.648438 348.066406 Z M 783.648438 348.066406 " clip-rule="nonzero"/></clipPath><clipPath id="9c4681a2b1"><path d="M 720 348.066406 L 847.5 348.066406 L 847.5 454.566406 L 720 454.566406 Z M 720 348.066406 " clip-rule="nonzero"/></clipPath><clipPath id="2e6f12d49c"><path d="M 783.644531 348.066406 C 748.496094 348.066406 720 371.882812 720 401.261719 C 720 430.644531 748.496094 454.460938 783.644531 454.460938 C 818.792969 454.460938 847.289062 430.644531 847.289062 401.261719 C 847.289062 371.882812 818.792969 348.066406 783.644531 348.066406 Z M 783.644531 348.066406 " clip-rule="nonzero"/></clipPath></defs><path stroke-linecap="butt" transform="matrix(0.75, 0, 0, 0.75, 204.72012, 344.316042)" fill="none" stroke-linejoin="miter" d="M -0.00182694 5.000486 L 1338.628504 5.000486 " stroke="#000000" stroke-width="10" stroke-opacity="1" stroke-miterlimit="4"/><path stroke-linecap="butt" transform="matrix(0.75, 0, 0, 0.75, 204.72012, 450.778067)" fill="none" stroke-linejoin="miter" d="M -0.00182694 4.999036 L 1338.628504 4.999036 " stroke="#000000" stroke-width="10" stroke-opacity="1" stroke-miterlimit="4"/><path stroke-linecap="butt" transform="matrix(0.75, 0, 0, 0.75, 204.72012, 557.180545)" fill="none" stroke-linejoin="miter" d="M -0.00182694 4.998857 L 1338.628504 4.998857 " stroke="#000000" stroke-width="10" stroke-opacity="1" stroke-miterlimit="4"/><path stroke-linecap="butt" transform="matrix(0.75, 0, 0, 0.75, 204.72012, 663.583503)" fill="none" stroke-linejoin="miter" d="M -0.00182694 4.998037 L 1338.628504 4.998037 " stroke="#000000" stroke-width="10" stroke-opacity="1" stroke-miterlimit="4"/><path stroke-linecap="butt" transform="matrix(0.75, 0, 0, 0.75, 204.72012, 769.986462)" fill="none" stroke-linejoin="miter" d="M -0.00182694 5.002426 L 1338.628504 5.002426 " stroke="#000000" stroke-width="10" stroke-opacity="1" stroke-miterlimit="4"/><path fill="#000000" d="M 396.089844 746.289062 C 362.789062 744.355469 328.789062 723.488281 308.453125 699.539062 C 284.878906 671.769531 275.160156 634.015625 277.648438 603.015625 C 284.960938 511.917969 384.125 458.078125 420.832031 418.289062 C 445.402344 391.652344 450.554688 378.667969 456.042969 364.96875 C 466.667969 338.453125 468.378906 307.386719 447.316406 305.066406 C 427.203125 302.855469 410.65625 334.449219 403.269531 356.042969 C 396.625 375.464844 392.207031 394.953125 396.203125 424.222656 C 398 437.375 447.457031 804.453125 448.292969 810.144531 C 456.621094 867.007812 424.070312 890.539062 390.839844 894.726562 C 319.082031 903.761719 296.054688 830.914062 328.21875 803.246094 C 352.976562 781.945312 389 800.234375 387.054688 835.253906 C 385.332031 866.273438 354.882812 867.1875 347.105469 866.480469 C 359.046875 887.875 449.078125 899.054688 435.253906 802.382812 C 433.3125 788.800781 387.609375 443.847656 386.492188 436.113281 C 378.109375 378.324219 376.832031 332.582031 406.96875 279.199219 C 418.097656 259.496094 435.679688 246.773438 444.3125 248.4375 C 446.210938 248.804688 448.101562 249.5 449.601562 251.046875 C 472.71875 274.84375 479.8125 327.617188 477.28125 357.933594 C 474.6875 388.972656 473.242188 421.105469 442.347656 458.578125 C 430.390625 473.082031 393.90625 505.027344 372.984375 523.382812 C 343.589844 549.167969 322.273438 571.691406 310.738281 598.863281 C 297.773438 629.402344 295.578125 667.839844 324.859375 701.949219 C 341.699219 721.21875 369.644531 734.894531 393.164062 735.183594 C 458.558594 735.996094 477.65625 703.792969 478.261719 667.324219 C 479.269531 607.273438 406.699219 584.570312 376.867188 625.863281 C 359.566406 649.800781 367.171875 675 378.789062 686.992188 C 382.777344 691.105469 387.230469 694.238281 391.445312 695.984375 C 392.972656 696.617188 396.5625 698.289062 395.542969 700.730469 C 394.695312 702.761719 393.050781 702.878906 391.546875 702.699219 C 372.734375 700.445312 351.902344 682.480469 346.777344 651.578125 C 339.3125 606.539062 379.101562 553.109375 435.890625 561.847656 C 473.070312 567.570312 507.59375 599.527344 504.566406 659.042969 C 501.96875 710.046875 459.640625 749.976562 396.089844 746.285156 Z M 396.089844 746.289062 " fill-opacity="1" fill-rule="nonzero"/><g clip-path="url(#63c4969375)"><g clip-path="url(#10e8aa97de)"><path fill="#000000" d="M 720 348.066406 L 847.183594 348.066406 L 847.183594 454.46875 L 720 454.46875 Z M 720 348.066406 " fill-opacity="1" fill-rule="nonzero"/></g></g><g clip-path="url(#9c4681a2b1)"><g clip-path="url(#2e6f12d49c)"><path stroke-linecap="butt" transform="matrix(0.75, 0, 0, 0.75, 719.99997, 348.066745)" fill="none" stroke-linejoin="miter" d="M 84.859423 -0.000451734 C 37.994835 -0.000451734 0.00004 31.754759 0.00004 70.926638 C 0.00004 110.103725 37.994835 141.858936 84.859423 141.858936 C 131.72401 141.858936 169.718805 110.103725 169.718805 70.926638 C 169.718805 31.754759 131.72401 -0.000451734 84.859423 -0.000451734 Z M 84.859423 -0.000451734 " stroke="#000000" stroke-width="46" stroke-opacity="1" stroke-miterlimit="4"/></g></g></svg>